<svg width="146" height="71" xmlns="http://www.w3.org/2000/svg" xmlns:xlink="http://www.w3.org/1999/xlink" xml:space="preserve" overflow="hidden"><g transform="translate(-850 -586)"><path d="M107.844 29.9424C102.717 30.7705 100.099 34.5564 100.099 41.2184 100.099 47.8804 103.59 52.4051 108.94 52.4051 111.43 52.4051 113.694 51.5769 118.45 49.2449L118.45 54.6687C112.742 57.2872 109.382 58.097 104.781 58.097 99.8018 58.097 96.2972 56.7746 93.4368 53.8589 90.5054 50.9249 89.0384 47.0523 89.0384 42.738 89.0384 33.1419 96.1421 26.6508 106.516 26.6508 113.407 26.6508 118.147 29.8004 118.147 34.4223 118.147 37.3984 115.942 39.449 112.668 39.449 110.988 39.449 109.608 39.01 107.841 37.9847L107.841 29.9397 107.841 29.9397ZM82.5472 42.7406C87.1428 36.9462 88.765 34.6116 88.765 31.7669 88.765 28.9223 86.5171 26.6534 83.5121 26.6534 81.6612 26.6534 79.997 27.5263 79.182 28.4359L79.182 40.2378 71.6524 50.2703 71.6524 27.3948 64.4935 27.3948 52.5917 47.1259 52.5917 27.3948 48.4772 27.3948 37.6744 30.0291 37.6744 32.7896 43.5662 33.3864 43.5662 57.5843 51.1825 57.5843 62.5979 38.826 62.5979 57.5843 70.9399 57.5843 82.5446 42.738 82.5446 42.738ZM14.9304 33.5468C16.6814 33.3339 17.549 33.234 18.3771 33.234 23.3434 33.234 26.0356 36.536 26.0356 42.7433 26.0356 50.0757 22.7466 53.901 16.6104 53.901 16.0977 53.901 15.7428 53.901 14.9304 53.8616L14.9304 33.5468 14.9304 33.5468ZM14.9304 57.2899C16.9101 57.5159 18.8293 57.5869 19.9861 57.5869 30.1921 57.5869 36.6675 51.0563 36.6675 41.3472 36.6675 32.95 31.8143 26.8848 25.2363 26.8848 22.3891 26.8848 20.4804 27.4684 14.9304 30.7731L14.9304 26.7297 11.8544 26.7297 0 30.3288 0 33.2313 4.90846 33.2313 4.90846 67.0831 0.491634 68.182 0.491634 70.9846 19.8678 70.9846 19.8678 68.182C19.8678 68.182 14.9278 67.0831 14.9278 67.0831L14.9278 57.2899 14.9278 57.2899Z" transform="matrix(1.00219 0 0 1 850 586.008)"/><path d="M102.334 18.2641 70.004 18.2641 75.5119 9.13336 107.841 9.13336 102.334 18.2641ZM145.681 0 113.352 0 107.844 9.13073 140.174 9.13073 145.681 0Z" fill="#FD5108" transform="matrix(1.00219 0 0 1 850 586.008)"/></g></svg>